<svg xmlns="http://www.w3.org/2000/svg" width="270px" height="38px" viewBox="0 0 270 38" fill="#0c2e45">
	<polygon points="22,19 21,17.3 8.3,17.3 7.3,19 5.5,22.2 23.8,22.2 "/>
	<polygon points="14.6,6.3 14.6,6.3 11.3,12.2 18,12.2 "/>
	<polygon points="2.5,27.3 0,31.7 0,31.7 14.6,31.7 29.3,31.7 26.7,27.3 "/>
	<polygon points="60.4,21.1 70.7,21.1 70.7,16.7 60.4,16.7 60.4,10.6 72.1,10.6 72.1,6.3 55.5,6.3 55.5,31.7 72.6,31.7 72.6,27.3 60.4,27.3 "/>
	<rect x="76.6" y="10.9" width="4.9" height="20.8" />
	<path d="M116.5,17.5c0,1.8,0,4.7,0,4.7v1.6L108.8,11h-4.6v20.7h4.6V19.2l7.7,12.5h4.5V10.9h-4.6V17.5z" />
	<polygon points="130.2,23.1 138.6,23.1 138.6,19.4 130.2,19.4 130.2,14.9 139.8,14.9 139.8,10.9 125.5,10.9 125.5,31.7 139.8,31.7 139.8,27.7 130.2,27.7 " />
	<path d="M156.6,24c2.4-1.1,3.7-3.1,3.7-5.9c0-5.9-4.5-7.2-8.4-7.2h-8v20.8h4.7v-6.8h2.8l4,6.8h5.2l-4.5-7.4L156.6,24z M151.8,21.3 h-3.2v-6.5h3.2c2.3,0,3.6,1.2,3.6,3.3C155.5,19.6,154.8,21.3,151.8,21.3z" />
	<path d="M200.9,22.2L194.5,11H190v20.7h4.7V20.2c0,0,6.2,10.2,6.2,10.2l6.1-10.2c0,0.1,0,11.4,0,11.4h4.7V11h-4.5L200.9,22.2z" />
	<path d="M224,10.9h-7.8v20.8h4.7v-6.4h3.1c3.1,0,8.4-0.9,8.4-7.2C232.4,12.1,227.8,10.9,224,10.9z M223.9,21.4h-3v-6.6h3 c2.3,0,3.6,1.2,3.6,3.3C227.6,20.3,226.3,21.4,223.9,21.4z" />
	<path d="M98.6,21.2c-1.2-0.9-2.7-1.5-4.2-2L94,19.2c-1-0.3-2-0.7-2.7-1c-0.4-0.2-0.7-0.5-0.9-0.7c-0.2-0.3-0.3-0.5-0.3-0.8v-0.1 c0-0.6,0.2-1,0.7-1.3c0.5-0.4,1.1-0.5,1.9-0.5c1.5,0,3.5,0.7,5.5,1.9l0.2,0.1l2-3.6l-0.1-0.1c-2.1-1.5-4.9-2.3-7.3-2.3 c-2,0-3.8,0.6-5.1,1.7c-1.4,1.1-2.1,2.8-2.1,4.7v0.1c0,1.8,0.7,3.2,2.1,4.3c1.2,1,2.8,1.5,4.2,1.9l0.4,0.1c1,0.3,1.9,0.6,2.6,1 c0.4,0.2,0.7,0.4,0.9,0.7c0.2,0.3,0.3,0.5,0.3,0.9v0.1c0,0.6-0.2,1.1-0.7,1.5c-0.5,0.4-1.2,0.6-2.2,0.6c-2,0-4.3-0.9-6.3-2.5 l-0.1-0.1l-2.2,3.4l0.1,0.1c2.4,1.9,5.5,3.1,8.5,3.1c2.1,0,4-0.6,5.3-1.6c1.4-1.1,2.2-2.9,2.2-4.9v-0.1 C100.6,23.7,99.9,22.3,98.6,21.2z" />
	<polygon points="239.9,23.1 248.3,23.1 248.3,19.4 239.9,19.4 239.9,14.9 249.5,14.9 249.5,10.9 235.2,10.9 235.2,31.7 249.5,31.7 249.5,27.7 239.9,27.7 "/>
	<path d="M265.5,24.2l0.5-0.2c2.4-1.1,3.7-3.1,3.7-5.9c0-5.9-4.6-7.2-8.4-7.2h-8v20.8h4.7v-6.8h2.8l4,6.8h5.2L265.5,24.2z M261.2,21.3H258v-6.5h3.2c2.3,0,3.6,1.2,3.6,3.3C264.8,19.6,264.2,21.3,261.2,21.3z" />
	<path d="M163,31.7h5.2l1.5-3.3h11.3l1.5,3.3h5.3L175.4,6.3L163,31.7z M171.5,24.5l3.9-8.3l3.8,8.3H171.5z" />
	<rect x="41.7" width="1.3" height="38"/>
</svg>
